<svg width="32" height="32" viewBox="0 0 32 32" fill="none" xmlns="http://www.w3.org/2000/svg">
<g id="mdi:instagram" clip-path="url(#clip0_223_77)">
<path id="Vector" d="M9.3333 0.126953H22.6666C27.746 0.126953 31.873 4.25394 31.873 9.3333V22.6666C31.873 25.1083 30.903 27.45 29.1765 29.1765C27.45 30.903 25.1083 31.873 22.6666 31.873H9.3333C4.25394 31.873 0.126953 27.746 0.126953 22.6666V9.3333C0.126953 6.89163 1.09691 4.54996 2.82343 2.82343C4.54996 1.09691 6.89163 0.126953 9.3333 0.126953ZM9.01584 3.30156C7.50032 3.30156 6.04687 3.9036 4.97523 4.97523C3.9036 6.04687 3.30156 7.50032 3.30156 9.01584V22.9841C3.30156 26.1428 5.85711 28.6984 9.01584 28.6984H22.9841C24.4996 28.6984 25.9531 28.0963 27.0247 27.0247C28.0963 25.9531 28.6984 24.4996 28.6984 22.9841V9.01584C28.6984 5.85711 26.1428 3.30156 22.9841 3.30156H9.01584ZM24.3333 5.68251C24.8595 5.68251 25.3642 5.89155 25.7363 6.26365C26.1084 6.63574 26.3174 7.14041 26.3174 7.66664C26.3174 8.19286 26.1084 8.69753 25.7363 9.06963C25.3642 9.44172 24.8595 9.65076 24.3333 9.65076C23.8071 9.65076 23.3024 9.44172 22.9303 9.06963C22.5582 8.69753 22.3492 8.19286 22.3492 7.66664C22.3492 7.14041 22.5582 6.63574 22.9303 6.26365C23.3024 5.89155 23.8071 5.68251 24.3333 5.68251ZM16 8.06346C18.1049 8.06346 20.1235 8.89963 21.6119 10.388C23.1003 11.8764 23.9365 13.8951 23.9365 16C23.9365 18.1049 23.1003 20.1235 21.6119 21.6119C20.1235 23.1003 18.1049 23.9365 16 23.9365C13.8951 23.9365 11.8764 23.1003 10.388 21.6119C8.89963 20.1235 8.06346 18.1049 8.06346 16C8.06346 13.8951 8.89963 11.8764 10.388 10.388C11.8764 8.89963 13.8951 8.06346 16 8.06346ZM16 11.2381C14.737 11.2381 13.5258 11.7398 12.6328 12.6328C11.7398 13.5258 11.2381 14.737 11.2381 16C11.2381 17.2629 11.7398 18.4741 12.6328 19.3671C13.5258 20.2602 14.737 20.7619 16 20.7619C17.2629 20.7619 18.4741 20.2602 19.3671 19.3671C20.2602 18.4741 20.7619 17.2629 20.7619 16C20.7619 14.737 20.2602 13.5258 19.3671 12.6328C18.4741 11.7398 17.2629 11.2381 16 11.2381Z" fill="white"/>
</g>
<defs>
<clipPath id="clip0_223_77">
<rect width="32" height="32" fill="white"/>
</clipPath>
</defs>
</svg>
